HIERARCHY
ROOT Hips
{
	OFFSET 0.000000 0.000000 0.000000
	CHANNELS 6 Xposition Yposition Zposition Xrotation Yrotation Zrotation
	JOINT LeftUpLeg_virtual
	{
		OFFSET 0.000000 0.000000 0.000000
		CHANNELS 3 Xrotation Yrotation Zrotation
		JOINT LeftUpLeg
		{
			OFFSET 10.205400 -3.823500 0.155100
			CHANNELS 3 Xrotation Yrotation Zrotation
			JOINT LeftLeg
			{
				OFFSET 0.708757 -12.982077 0.567790
				CHANNELS 3 Xrotation Yrotation Zrotation
				JOINT LeftFoot
				{
					OFFSET -0.708756 -10.717838 -2.184338
					CHANNELS 3 Xrotation Yrotation Zrotation
					JOINT LeftToeBase
					{
						OFFSET 0.108149 -7.191104 7.560241
						CHANNELS 3 Xrotation Yrotation Zrotation
						JOINT LeftToe_End
						{
							OFFSET 0.070230 0.081724 4.490308
							CHANNELS 3 Xrotation Yrotation Zrotation
							End Site
							{
								OFFSET 0 0 0
							}
						}
					}
				}
			}
		}
	}
	JOINT RightUpLeg_virtual
	{
		OFFSET 0.000000 0.000000 0.000000
		CHANNELS 3 Xrotation Yrotation Zrotation
		JOINT RightUpLeg
		{
			OFFSET -10.205400 -3.823500 0.005500
			CHANNELS 3 Xrotation Yrotation Zrotation
			JOINT RightLeg
			{
				OFFSET -0.708756 -12.982134 0.610632
				CHANNELS 3 Xrotation Yrotation Zrotation
				JOINT RightFoot
				{
					OFFSET 0.708754 -10.717769 -1.945823
					CHANNELS 3 Xrotation Yrotation Zrotation
					JOINT RightToeBase
					{
						OFFSET -0.108140 -7.191069 7.372968
						CHANNELS 3 Xrotation Yrotation Zrotation
						JOINT RightToe_End
						{
							OFFSET -0.070227 0.081735 4.479403
							CHANNELS 3 Xrotation Yrotation Zrotation
							End Site
							{
								OFFSET 0 0 0
							}
						}
					}
				}
			}
		}
	}
	JOINT Spine_virtual
	{
		OFFSET 0.000000 0.000000 0.000000
		CHANNELS 3 Xrotation Yrotation Zrotation
		JOINT Spine
		{
			OFFSET 0.000000 6.876099 0.125700
			CHANNELS 3 Xrotation Yrotation Zrotation
			JOINT Spine1
			{
				OFFSET 0.000000 5.730043 0.104720
				CHANNELS 3 Xrotation Yrotation Zrotation
				JOINT Spine1_split
				{
					OFFSET 0.000000 5.730043 0.104720
					CHANNELS 3 Xrotation Yrotation Zrotation
					JOINT Spine2
					{
						OFFSET 0.000000 5.730043 0.104720
						CHANNELS 3 Xrotation Yrotation Zrotation
						JOINT Neck_virtual
						{
							OFFSET 0.000000 0.000000 0.000000
							CHANNELS 3 Xrotation Yrotation Zrotation
							JOINT Neck
							{
								OFFSET 0.000000 10.314075 0.188496
								CHANNELS 3 Xrotation Yrotation Zrotation
								JOINT Head
								{
									OFFSET 0.000000 7.643700 -2.377400
									CHANNELS 3 Xrotation Yrotation Zrotation
									JOINT HeadTop_End
									{
										OFFSET 0.000000 43.788605 -13.619600
										CHANNELS 3 Xrotation Yrotation Zrotation
										End Site
										{
											OFFSET 0 0 0
										}
									}
								}
							}
						}
						JOINT LeftShoulder_virtual
						{
							OFFSET 0.000000 0.000000 0.000000
							CHANNELS 3 Xrotation Yrotation Zrotation
							JOINT LeftShoulder
							{
								OFFSET 2.196100 4.412489 0.087492
								CHANNELS 3 Xrotation Yrotation Zrotation
								JOINT LeftShoulder_split
								{
									OFFSET 2.196100 4.412489 0.087492
									CHANNELS 3 Xrotation Yrotation Zrotation
									JOINT LeftArm
									{
										OFFSET 8.771219 -2.981674 -0.026999
										CHANNELS 3 Xrotation Yrotation Zrotation
										JOINT LeftForeArm
										{
											OFFSET 8.512804 0.000000 -0.000000
											CHANNELS 3 Xrotation Yrotation Zrotation
											JOINT LeftHand
											{
												OFFSET 18.484802 0.000000 -0.000000
												CHANNELS 3 Xrotation Yrotation Zrotation
												End Site
												{
													OFFSET 0 0 0
												}
											}
										}
									}
								}
							}
						}
						JOINT RightShoulder_virtual
						{
							OFFSET 0.000000 0.000000 0.000000
							CHANNELS 3 Xrotation Yrotation Zrotation
							JOINT RightShoulder
							{
								OFFSET -2.196100 4.412496 0.070690
								CHANNELS 3 Xrotation Yrotation Zrotation
								JOINT RightShoulder_split
								{
									OFFSET -2.196100 4.412496 0.070690
									CHANNELS 3 Xrotation Yrotation Zrotation
									JOINT RightArm
									{
										OFFSET -8.771282 -2.981682 -0.094208
										CHANNELS 3 Xrotation Yrotation Zrotation
										JOINT RightForeArm
										{
											OFFSET -8.494598 0.000000 0.000000
											CHANNELS 3 Xrotation Yrotation Zrotation
											JOINT RightHand
											{
												OFFSET -18.483803 0.000000 0.000001
												CHANNELS 3 Xrotation Yrotation Zrotation
												End Site
												{
													OFFSET 0 0 0
												}
											}
										}
									}
								}
							}
						}
					}
				}
			}
		}
	}
}
MOTION
Frames: 7
Frame Time: 0.03333333
3.956535 25.903336 -5.912143 0.000000 0.000000 0.000000 8.282425 -77.225903 13.111901 -27.638601 -11.181037 30.983579 54.794353 -20.642092 5.289939 -11.999610 7.415442 -31.795442 -17.373208 -1.774085 -2.004957 0.000000 0.000000 0.000000 8.283726 -75.823897 13.282490 -15.009112 3.270336 -40.590879 49.117748 27.307532 -5.978774 -27.787619 -25.063951 56.863398 0.765400 8.704330 -25.451546 0.000000 0.000000 0.000000 5.384017 -74.309603 8.408663 0.209473 5.172540 4.080121 5.307638 2.621100 1.551296 0.292611 -0.261260 0.077953 0.000000 0.000000 0.000000 6.423826 4.105412 1.879052 -7.621387 11.274828 0.288345 -5.923426 9.768573 -8.589393 0.000000 0.000000 0.000000 4.405296 3.488553 0.914994 0.529112 8.819406 -3.258142 -2.406379 -1.089221 -0.957042 -14.026537 10.442394 -64.271609 161.648093 -65.271084 154.822097 0.000000 0.000000 0.000000 7.192792 3.703131 0.642718 -6.477225 3.070905 4.515040 -2.240784 1.564349 7.282816 -13.196308 40.718740 54.130168 -176.533233 65.618570 -176.322549 0.000000 0.000000 0.000000 
3.930108 25.662840 -5.768199 0.000000 0.000000 0.000000 2.921375 -77.073637 7.457929 -28.953954 -11.214828 32.242553 56.086474 -21.323596 6.938855 -14.840179 5.676947 -30.473463 -16.167548 -1.747208 -2.601247 0.000000 0.000000 0.000000 5.948266 -75.589553 9.912286 -12.645555 -0.413013 -38.893037 47.512913 24.608560 -5.379965 -35.627957 -27.486075 45.658100 -1.031197 10.109716 -26.177883 0.000000 0.000000 0.000000 1.717651 -74.351008 4.405753 -0.417680 5.399996 4.327411 5.304170 2.961110 1.897296 0.272202 -0.553996 0.094100 0.000000 0.000000 0.000000 6.935599 4.470048 2.072193 -8.033069 11.138219 0.133035 -4.475869 10.504550 -9.362345 0.000000 0.000000 0.000000 4.939473 3.726509 1.202965 -0.072924 8.342548 -2.940079 -0.976879 -0.153747 -1.614380 -12.260981 8.157170 -65.247807 160.892974 -63.985868 154.502417 0.000000 0.000000 0.000000 7.435248 4.031252 0.976405 -6.722338 1.377154 3.846065 -2.682274 1.572381 7.598842 -12.821827 40.812545 53.805314 -176.351304 64.722039 -176.054710 0.000000 0.000000 0.000000 
3.857617 26.414980 -5.672164 0.000000 0.000000 0.000000 0.870920 -75.199802 4.945335 -31.108387 -11.101174 31.727178 53.100117 -22.913973 7.893370 -13.080830 2.604546 -32.563627 -13.084288 -1.863660 -2.695252 0.000000 0.000000 0.000000 4.176096 -73.535367 7.620984 -13.035323 -2.011863 -38.675946 47.451305 24.831733 -4.313160 -28.452611 -24.066523 44.579145 -6.378704 11.033291 -23.848186 0.000000 0.000000 0.000000 -1.169166 -72.472692 1.369393 -1.229134 5.345654 4.260824 5.075863 2.991926 2.012810 0.121208 -0.870647 0.059161 0.000000 0.000000 0.000000 7.116990 4.543731 2.102525 -8.183397 10.956352 -0.094369 -2.911268 10.841622 -9.744089 0.000000 0.000000 0.000000 5.179840 3.677999 1.327408 -0.597281 7.607260 -2.298201 0.758002 0.384054 -1.682992 -11.109882 4.639577 -64.788818 161.489523 -62.605541 155.624426 0.000000 0.000000 0.000000 7.404742 3.998144 1.137238 -6.917921 0.173843 3.114571 -2.769745 1.703195 7.595172 -10.754619 39.943206 52.571123 -176.352165 62.836764 -175.920073 0.000000 0.000000 0.000000 
3.750595 28.061466 -5.643836 0.000000 0.000000 0.000000 0.621356 -71.265046 4.010250 -32.951052 -10.509909 29.565539 46.144939 -24.204698 7.390382 -6.852631 -1.332985 -36.226975 -12.122669 -2.164603 -1.992155 0.000000 0.000000 0.000000 1.797911 -69.829593 5.230555 -16.848731 -0.552671 -40.864902 49.657634 28.779484 -3.130378 -8.470434 -13.265277 50.632787 -8.069981 9.883100 -19.154417 0.000000 0.000000 0.000000 -2.323775 -68.875634 0.025004 -1.846126 5.009721 3.997705 4.729208 2.706712 1.946735 -0.060329 -1.005929 0.065784 0.000000 0.000000 0.000000 6.813948 4.288666 2.014811 -8.051578 10.745497 -0.341567 -1.590210 10.755915 -9.579673 0.000000 0.000000 0.000000 5.053864 3.340793 1.321201 -0.968312 6.734874 -1.712894 2.265593 0.479157 -1.180449 -10.501437 0.716961 -63.368282 163.176061 -61.348745 157.924738 0.000000 0.000000 0.000000 7.145637 3.620210 1.127664 -7.055678 -0.409732 2.341136 -2.668140 1.601019 7.234909 -7.452389 38.056909 50.455663 -176.737169 60.274439 -175.787636 0.000000 0.000000 0.000000 
3.615519 30.176231 -5.638808 0.000000 0.000000 0.000000 1.136759 -65.853863 3.620519 -34.060521 -9.241838 26.366253 38.689969 -23.174914 6.180306 1.329413 -4.127816 -37.676608 -12.589114 -2.485799 -1.488078 0.000000 0.000000 0.000000 1.558833 -64.140899 4.265643 -19.765615 1.384737 -41.370668 49.169545 31.196151 -1.875571 7.826534 -3.104117 49.135787 -8.467106 7.946947 -14.508579 0.000000 0.000000 0.000000 -2.330815 -64.018878 -0.242074 -2.190348 4.465841 3.774645 4.438622 2.175359 1.816360 -0.178136 -0.983813 0.056481 0.000000 0.000000 0.000000 6.018605 3.761611 1.864548 -7.634149 10.479234 -0.604899 -1.010682 10.624480 -8.939178 0.000000 0.000000 0.000000 4.688158 2.775990 1.234446 -1.110921 5.756624 -1.572811 3.305463 0.494117 -0.653964 -10.096191 -2.796221 -61.674689 165.819289 -60.285913 161.167029 0.000000 0.000000 0.000000 6.760650 3.040298 1.029260 -7.149369 -0.353491 1.666274 -2.542933 1.330569 6.727481 -4.023238 35.126768 47.896264 -177.429873 57.801876 -175.704076 0.000000 0.000000 0.000000 
3.476587 32.238281 -5.668351 0.000000 0.000000 0.000000 1.506447 -60.445835 2.785609 -33.542622 -6.756846 23.051072 32.685338 -19.166937 4.931619 7.271834 -3.017152 -34.712394 -13.012159 -2.672199 -1.684169 0.000000 0.000000 0.000000 2.552937 -57.774528 3.522447 -18.830234 1.003926 -37.654273 43.779655 30.052761 -0.158751 12.347665 -1.698336 39.597622 -10.589250 6.416769 -12.132181 0.000000 0.000000 0.000000 -2.206631 -58.729908 -0.337124 -2.192200 3.787424 3.644679 4.370951 1.514254 1.660333 -0.128349 -0.792480 0.099869 0.000000 0.000000 0.000000 5.025507 3.067148 1.704570 -7.064633 10.193769 -0.892667 -1.496174 10.538364 -8.094281 0.000000 0.000000 0.000000 4.261291 2.075221 1.116946 -1.056661 4.790302 -1.965639 3.603267 0.540460 -0.503852 -9.707282 -5.291925 -60.415106 168.987431 -59.520468 164.858500 0.000000 0.000000 0.000000 6.388588 2.371278 0.903297 -7.185726 0.261502 1.080696 -2.643887 0.945505 6.508763 -1.233598 31.386270 45.352757 -178.205154 56.447525 -175.783798 0.000000 0.000000 0.000000 
3.287310 33.948948 -5.673209 0.000000 0.000000 0.000000 1.620193 -55.941189 1.891728 -30.863395 -3.360334 20.494295 28.791973 -13.180101 3.786639 7.691995 2.050713 -28.083769 -13.120805 -2.770209 -2.209621 0.000000 0.000000 0.000000 2.974351 -51.770293 2.358750 -16.369976 -0.864283 -31.762405 36.765973 26.684805 1.074277 7.989526 -4.474222 28.254292 -11.019809 5.436622 -12.103981 0.000000 0.000000 0.000000 -1.975858 -53.147847 -0.215693 -1.975169 3.049562 3.516794 4.631369 0.800623 1.463190 0.034064 -0.602577 0.163857 0.000000 0.000000 0.000000 4.261560 2.339001 1.534902 -6.408075 9.895371 -1.185288 -2.988121 10.768045 -7.377204 0.000000 0.000000 0.000000 3.955043 1.349589 0.969658 -0.864996 3.799901 -2.699704 3.009413 0.635621 -0.702059 -9.364123 -6.578488 -59.832334 172.333186 -59.074299 168.644529 0.000000 0.000000 0.000000 6.122943 1.719383 0.749584 -7.085093 1.200809 0.657852 -3.060591 0.380372 6.793998 0.524656 27.240714 43.225443 -178.768536 56.768950 -176.123914 0.000000 0.000000 0.000000 
